# xmcd CD database file
#
# Track frame offsets:
#	150
#	21251
#	40886
#	60912
#	80812
#	101874
#	119640
#	137300
#	152004
#	168244
#	183346
#	202837
#
# Disc length: 2977 seconds
#
# Revision: 2
# Processed by: cddbd v1.5.2PL0 Copyright (c) Steve Scherf et al.
# Submitted via: CDex 1.70beta2
#
DISCID=980b9f0c
DTITLE=符瓊音 - 粉紅點唱機
DYEAR=2009
DGENRE=Pop
TTITLE0=我是不是你最疼愛的人
TTITLE1=留不住的故事
TTITLE2=酒矸倘賣無
TTITLE3=逝去的愛
TTITLE4=海海人生
TTITLE5=夢醒時分
TTITLE6=Saving all my love for you
TTITLE7=The way we were
TTITLE8=Stupid cupid ( Duet with ­·¬Â¬Â)
TTITLE9=The rose
TTITLE10=Hero
TTITLE11=My heart will go on
EXTD=YEAR: 2009
EXTT0=
EXTT1=
EXTT2=
EXTT3=
EXTT4=
EXTT5=
EXTT6=
EXTT7=
EXTT8=
EXTT9=
EXTT10=
EXTT11=
PLAYORDER=
